<?xml version="1.0" encoding="UTF-8"?>
<!DOCTYPE svg PUBLIC "-//W3C//DTD SVG 1.1//EN" "http://www.w3.org/Graphics/SVG/1.1/DTD/svg11.dtd">
<svg xmlns="http://www.w3.org/2000/svg" version="1.1" width="120px" height="120px" style="shape-rendering:geometricPrecision; text-rendering:geometricPrecision; image-rendering:optimizeQuality; fill-rule:evenodd; clip-rule:evenodd" xmlns:xlink="http://www.w3.org/1999/xlink">
<g><path fill="#fefeeb" stroke="#fefeeb" stroke-width="0.5" d="M 111.93,67.1 c -0.08,17.67 -1,33.72 -20.57,39.68 c -7.78,1.74 -16.9,0.96 -24.86,2.16 c -13.5,0.56 -26.34,-0.76 -39.67,-1.71 c -11.49,-1.72 -19.98,-11.5 -21.7,-22.76 c 0.08,-11.82 -2.39,-25.4 -0.2,-36.97 c -0.13,-14.57 0.87,-27.41 15.11,-34.87 c 13.47,-4.84 37.18,-5.24 51.57,-4.43 c 12.25,2.34 25.1,-0.28 33.61,10.92 c 6.83,8.76 6.01,17.91 5.85,28.38 c 1.54,6.7 0.86,12.74 0.86,19.6 Z M 15.96,32 c -0.05,3.99 -0.13,6.75 2.55,9.93 c 3.69,3.63 9.21,-0.39 11.08,1.67 c -1.69,7.21 -2.2,14.51 -1.53,21.9 c 0.82,4.93 1.4,9.87 1.76,14.84 c -0.3,0.47 -0.74,0.68 -1.31,0.65 c -2.88,0.06 -5.76,0.24 -8.62,0.54 c -1.24,1 -1.74,2.31 -1.51,3.93 c 1.25,12.48 8.46,12.13 18.9,11.23 c 1.3,-0.35 2.6,-2.71 4.02,-2.19 c 1.72,1.41 3.68,2.11 5.9,2.08 c 1.42,-0.78 2.82,-1.59 4.22,-2.4 c 1.09,0.51 2.17,1.06 3.24,1.64 c 1.58,0.53 3.14,0.48 4.68,-0.17 c 3.16,-2.99 4.02,-1.15 7.36,-0.1 c 4.23,-0.29 6.17,-1.82 9.39,1.87 c 9.66,3.85 22.99,3.09 24.08,-9.82 c 6.29,-6.47 6.62,-13.19 -2.96,-16.37 c -2.36,-6.31 -6.77,-6.6 -12.35,-4.79 c -0.36,-0.21 -0.57,-0.52 -0.63,-0.95 c -2.34,-9.36 -2.56,-16.28 -0.89,-25.74 c 0.24,-0.48 0.63,-0.8 1.15,-0.95 c 10.67,-0.21 7.78,-19.19 -1.98,-18.73 c -19.84,1.09 -40.21,0.52 -59.98,2.02 c -4.36,1.34 -6.24,5.68 -6.57,9.91 Z"/></g>
<g><path fill="#fce9b3" fill-opacity="0.482" d="M 117.31,50.8 c 0.51,0.39 0.74,0.93 0.69,1.62 c -0.07,2.74 -0.02,5.49 0.16,8.23 c -0.22,4.96 -0.26,9.92 -0.13,14.88 c 0.02,0.7 -0.23,1.27 -0.76,1.7 c -0.25,-3.57 -0.36,-7.14 -0.33,-10.73 c 0.28,-5.23 0.4,-10.47 0.37,-15.7 Z"/></g>
<g><path fill="#f8f4d6" fill-opacity="0.616" d="M 2.03,47.75 c 1.17,2.21 -0.25,3.47 -0.1,5.81 c 0.08,4.12 -0.02,8.24 -0.29,12.34 c -0.12,0.04 -0.24,0.07 -0.36,0.1 c -0.75,-5.87 -0.78,-11.75 -0.08,-17.63 c 0.14,-0.42 0.41,-0.62 0.83,-0.62 Z"/></g>
<g><path fill="#f8edcd" fill-opacity="0.714" d="M 2.93,88.33 c 0.35,-0.02 0.63,0.13 0.83,0.43 c 1.13,3.53 2.72,6.84 4.77,9.93 c 0.2,0.52 0.27,1.07 0.2,1.63 c -2.53,-2.03 -3.34,-5.12 -5.09,-7.71 c -0.28,-1.41 -0.52,-2.84 -0.71,-4.28 Z"/></g>
<g><path fill="#f9edcc" fill-opacity="0.529" d="M 53.02,5.28 c -2.7,1.46 -6.44,0.68 -9.38,0.59 c 0.42,-0.66 1.03,-0.95 1.83,-0.89 c 2.07,0.45 5.95,-0.79 7.55,0.3 Z"/></g>
<g><path fill="#fefcd6" fill-opacity="0.522" d="M 51.15,114.88 c 2.06,0.02 4.12,0.14 6.16,0.34 c -1.05,1.26 -3.45,0.62 -4.91,0.81 c -0.88,0.07 -1.3,-0.31 -1.25,-1.15 Z"/></g>
<g><path fill="#f9f9d6" fill-opacity="0.102" d="M 65.26,5.04 c -1.55,0.24 -3.1,0.19 -4.62,-0.14 c 0.42,-1.39 4.27,-1.39 4.62,0.14 Z"/></g>
<g><path fill="#faf5da" fill-opacity="0.584" d="M 72.9,5.28 c 0.02,0.15 0.04,0.29 0.07,0.44 c -1.11,0.4 -2.13,0.23 -3.06,-0.49 c 1,-0.24 1.99,-0.22 2.99,0.05 Z"/></g>
<g><path fill="#faf3c9" fill-opacity="0.573" d="M 111.08,102.67 c -0.17,1.41 -0.93,2.22 -2.28,2.45 c 0.05,-1.46 0.81,-2.28 2.28,-2.45 Z"/></g>
<g><path fill="#f2e5b4" fill-opacity="0.388" d="M 15.94,106.02 c 0.55,0.27 0.83,0.72 0.82,1.35 c -0.34,-0.41 -0.61,-0.86 -0.82,-1.35 Z"/></g>
<g><path fill="#fde9ad" fill-opacity="0.51" d="M 113.3,24.77 c 0.3,0.38 0.42,0.82 0.33,1.3 c -0.3,-0.38 -0.41,-0.81 -0.33,-1.3 Z"/></g>
<g><path fill="#f9fcdb" fill-opacity="0.361" d="M 105.72,15.14 c 0.7,0.12 1.13,0.52 1.3,1.21 c -0.56,-0.27 -0.99,-0.67 -1.3,-1.21 Z"/></g>
<g><path fill="#fbfbda" fill-opacity="0.243" d="M 103.71,13.01 c 0.69,0.19 1.08,0.64 1.19,1.34 c -0.53,-0.33 -0.92,-0.78 -1.19,-1.34 Z"/></g>
<g><path fill="#f4e1bf" fill-opacity="0.439" d="M 19.38,9.93 c -0.44,0.56 -1.01,0.9 -1.72,1.01 c 0.43,-0.56 1,-0.9 1.72,-1.01 Z"/></g>
<g><path fill="#fde8b1" fill-opacity="0.514" d="M 25.76,112.29 c 0.55,-0.13 0.96,0.04 1.23,0.51 c -0.48,-0.01 -0.89,-0.18 -1.23,-0.51 Z"/></g>
<g><path fill="#fcebb3" fill-opacity="0.588" d="M 99.23,111.25 c -0.35,0.42 -0.77,0.77 -1.24,1.04 c 0.19,-0.61 0.61,-0.95 1.24,-1.04 Z"/></g>
<g><path fill="#f8efcc" fill-opacity="0.431" d="M 12.67,103.92 c 0.62,0.06 1.07,0.36 1.34,0.92 c -0.58,-0.11 -1.03,-0.41 -1.34,-0.92 Z"/></g>
<g><path fill="#fcf7d5" fill-opacity="0.361" d="M 14.01,104.84 c 0.47,0.22 0.85,0.54 1.14,0.97 c -0.72,0.08 -1.1,-0.24 -1.14,-0.97 Z"/></g>
<g><path fill="#682e1a" fill-opacity="0.996" d="M 15.96,32 c 0.33,-4.23 2.21,-8.57 6.57,-9.91 c 19.77,-1.5 40.14,-0.93 59.98,-2.02 c 9.76,-0.46 12.65,18.52 1.98,18.73 c -0.52,0.15 -0.91,0.47 -1.15,0.95 c -1.67,9.46 -1.45,16.38 0.89,25.74 c 0.06,0.43 0.27,0.74 0.63,0.95 c 5.58,-1.81 9.99,-1.52 12.35,4.79 c 9.58,3.18 9.25,9.9 2.96,16.37 c -1.09,12.91 -14.42,13.67 -24.08,9.82 c -3.22,-3.69 -5.16,-2.16 -9.39,-1.87 c -3.34,-1.05 -4.2,-2.89 -7.36,0.1 c -1.54,0.65 -3.1,0.7 -4.68,0.17 c -1.07,-0.58 -2.15,-1.13 -3.24,-1.64 c -1.4,0.81 -2.8,1.62 -4.22,2.4 c -2.22,0.03 -4.18,-0.67 -5.9,-2.08 c -1.42,-0.52 -2.72,1.84 -4.02,2.19 c -10.44,0.9 -17.65,1.25 -18.9,-11.23 c -0.23,-1.62 0.27,-2.93 1.51,-3.93 c 2.86,-0.3 5.74,-0.48 8.62,-0.54 c 0.57,0.03 1.01,-0.18 1.31,-0.65 c -0.36,-4.97 -0.94,-9.91 -1.76,-14.84 c -0.67,-7.39 -0.16,-14.69 1.53,-21.9 c -1.87,-2.06 -7.39,1.96 -11.08,-1.67 c -2.68,-3.18 -2.6,-5.94 -2.55,-9.93 Z M 29.25,24.25 c 7.01,11.23 0.83,23 1.39,35.26 c -0.29,10.18 4.28,24.59 -0.25,33.97 c 1.33,2.35 8.16,-0.85 10.12,-1.63 c 2.67,-0.27 3.86,2.57 6.03,2.09 c 5.55,-2.56 3.84,-3.4 10.13,-0.41 c 1.65,-0.73 3.3,-1.5 4.95,-2.3 c 2.05,-0.65 3.88,1.31 5.88,1.55 c 0.9,0.04 4.61,-0.49 4.14,-1.86 c -2.08,-6.83 -10.18,-14.43 1.53,-19.32 c 1.6,-1.86 2.45,-4.03 4.9,-5 c 1.21,-0.35 2.35,-0.75 3.44,-1.22 c -1.44,-5.56 -1.99,-11.22 -1.66,-16.97 c 0.11,-7.19 3.85,-19.64 -2.99,-24.65 c -3.24,-1.63 -41.06,0.62 -47.61,0.49 Z M 80.22,23.24 c 0.99,1.39 1.82,2.87 2.49,4.44 c 1.52,2.45 -0.36,10.61 4.32,7.79 c 3.12,-5.33 0.99,-14.92 -6.81,-12.23 Z M 18.13,32.93 c -0.05,2.91 0.89,5.44 2.8,7.59 c 1.78,0.67 2.74,0.05 2.88,-1.87 c -1.79,-2.58 -3.6,-7.51 1.18,-8.14 c 1.34,-0.53 5.27,1.16 3.8,-1.83 c -4.39,-8.31 -9.87,-2.34 -10.66,4.25 Z M 23.97,33.92 c 1.85,0.97 2.03,7.46 3.5,6.79 c 4.49,0.28 3.23,-8.36 1.05,-7.89 c -1.26,0.26 -4.37,-0.85 -4.55,1.1 Z M 69.35,79.14 c -0.51,3.34 2.37,5.33 4.23,7.55 c 1.1,10.64 8.97,11 17.95,9.19 c 5.42,-1.91 4.79,-5.41 6.1,-9.89 c 5.59,-4.5 6.42,-10.73 -1.92,-12.16 c -0.67,-1.58 -1.59,-3.03 -2.74,-4.35 c -1.56,-1.5 -3.35,-1.85 -5.38,-1.05 c -2.65,2.4 -3.34,0.81 -6.24,-0.03 c -1.77,-0.01 -3.2,0.69 -4.29,2.11 c -0.6,1.12 -1.17,2.24 -1.72,3.38 c -3.25,1.16 -5.19,1.52 -5.99,5.25 Z M 21.14,85 c 0.67,10.91 8.85,11.76 8.71,-0.37 c -0.66,-1.69 -5.89,-0.47 -7.4,-0.81 c -0.79,0.03 -1.22,0.43 -1.31,1.18 Z"/></g>
<g><path fill="#facc7c" fill-opacity="0.992" d="M 23.97,33.92 c 0.18,-1.95 3.29,-0.84 4.55,-1.1 c 2.18,-0.47 3.44,8.17 -1.05,7.89 c -1.47,0.67 -1.65,-5.82 -3.5,-6.79 Z"/></g>
<g><path fill="#fcd58b" stroke="#fcd58b" stroke-width="0.5" d="M 21.14,85 c 0.09,-0.75 0.52,-1.15 1.31,-1.18 c 1.51,0.34 6.74,-0.88 7.4,0.81 c 0.14,12.13 -8.04,11.28 -8.71,0.37 Z"/></g>
<g><path fill="#fbc774" stroke="#fbc774" stroke-width="0.5" d="M 18.13,32.93 c 0.79,-6.59 6.27,-12.56 10.66,-4.25 c 1.47,2.99 -2.46,1.3 -3.8,1.83 c -4.78,0.63 -2.97,5.56 -1.18,8.14 c -0.14,1.92 -1.1,2.54 -2.88,1.87 c -1.91,-2.15 -2.85,-4.68 -2.8,-7.59 Z"/></g>
<g><path fill="#fdf8cb" stroke="#fdf8cb" stroke-width="0.5" d="M 80.22,23.24 c 7.8,-2.69 9.93,6.9 6.81,12.23 c -4.68,2.82 -2.8,-5.34 -4.32,-7.79 c -0.67,-1.57 -1.5,-3.05 -2.49,-4.44 Z"/></g>
<g><path fill="#f8fada" fill-opacity="0.42" d="M 98.8,9.84 c 0.93,-0.05 2.45,0.08 2.26,1.4 c -1.07,-0.01 -1.82,-0.48 -2.26,-1.4 Z"/></g>
<g><path fill="#f8eecf" fill-opacity="0.588" d="M 76.89,6.36 c 1.23,-0.48 3.4,-0.73 4.26,0.36 c -1.46,0.51 -2.88,0.39 -4.26,-0.36 Z"/></g>
<g><path fill="#fafadf" fill-opacity="0.082" d="M 72.9,5.28 c 0.98,-0.16 4.74,-1.16 3.99,1.08 c -1.3,-0.28 -2.6,-0.49 -3.92,-0.64 c -0.03,-0.15 -0.05,-0.29 -0.07,-0.44 Z"/></g>
<g><path fill="#fde7b0" fill-opacity="0.992" stroke="#fde7b0" stroke-width="0.5" stroke-opacity="0.992" d="M 111,22.97 c 0.87,0.48 1.64,1.08 2.3,1.8 c -0.08,0.49 0.03,0.92 0.33,1.3 c 0.7,0.22 1.1,0.7 1.23,1.44 c 2.31,7.83 1.63,15.36 2.45,23.29 c 0.03,5.23 -0.09,10.47 -0.37,15.7 c -0.03,3.59 0.08,7.16 0.33,10.73 c 0.53,7.41 -1.77,19.55 -6.19,25.44 c -1.47,0.17 -2.23,0.99 -2.28,2.45 c -3.25,2.13 -5.91,4.6 -9.57,6.13 c -0.63,0.09 -1.05,0.43 -1.24,1.04 c -8.39,1.11 -17.17,1.77 -25.71,1.98 c -1.67,-0.35 -4.37,-0.73 -5.61,0.75 c -3.12,-0.12 -6.24,-0.06 -9.36,0.2 c -2.04,-0.2 -4.1,-0.32 -6.16,-0.34 c -7.96,-0.81 -16.35,-0.51 -24.16,-2.08 c -0.27,-0.47 -0.68,-0.64 -1.23,-0.51 c -2.93,-0.86 -5.62,-2.19 -8.07,-4.01 c 0.17,-0.87 0.69,-1.18 1.56,-0.94 c 2.19,0.95 4.46,1.63 6.81,2.05 c 4.13,0.54 8.28,0.76 12.44,0.65 c 1.66,0.32 3.32,0.59 5,0.79 c 9,0.61 18,0.62 27,0.02 c 1.65,-0.35 3.32,-0.6 5,-0.74 c 5.93,0.34 11.78,-0.13 17.57,-1.38 c 10.22,-3.77 16.74,-10.92 19.54,-21.44 c 0.25,-2.18 0.58,-4.36 0.99,-6.53 c 0.18,-4.56 0.33,-9.12 0.46,-13.68 c -0.46,-14.62 0.37,-29.87 -3.06,-44.11 Z"/></g>
<g><path fill="#fde9b1" fill-opacity="0.573" d="M 72.28,114.27 c -1.15,1.08 -4.12,1.02 -5.61,0.75 c 1.24,-1.48 3.94,-1.1 5.61,-0.75 Z"/></g>
<g><path fill="#f4ae80" fill-opacity="0.89" d="M 53.02,5.28 c 2.55,-0.1 5.09,-0.23 7.62,-0.38 c 1.52,0.33 3.07,0.38 4.62,0.14 c 1.58,-0.11 3.13,-0.04 4.65,0.19 c 0.93,0.72 1.95,0.89 3.06,0.49 c 1.32,0.15 2.62,0.36 3.92,0.64 c 1.38,0.75 2.8,0.87 4.26,0.36 c 3.44,-0.17 6.88,-0.05 10.31,0.37 c 2.56,0.5 5.04,1.27 7.42,2.33 c -0.03,0.14 -0.05,0.28 -0.08,0.42 c 0.44,0.92 1.19,1.39 2.26,1.4 c 0.95,0.19 2.97,0.3 2.65,1.77 c 0.27,0.56 0.66,1.01 1.19,1.34 c 0.73,-0.21 1,0.06 0.82,0.79 c 0.31,0.54 0.74,0.94 1.3,1.21 c 0.95,-0.06 1.45,0.42 1.48,1.44 c 0.58,0.64 1.15,1.3 1.71,1.96 c 0.43,0.95 -0.26,2.66 0.79,3.22 c 3.43,14.24 2.6,29.49 3.06,44.11 c -0.71,0.05 -1.42,0.06 -2.13,0.02 c 0,-6.86 0.68,-12.9 -0.86,-19.6 c 0.16,-10.47 0.98,-19.62 -5.85,-28.38 c -8.51,-11.2 -21.36,-8.58 -33.61,-10.92 c -14.39,-0.81 -38.1,-0.41 -51.57,4.43 c -14.24,7.46 -15.24,20.3 -15.11,34.87 c -2.19,11.57 0.28,25.15 0.2,36.97 c 1.72,11.26 10.21,21.04 21.7,22.76 c 0.31,0.95 0.05,1.67 -0.77,2.16 c -2.35,-0.42 -4.62,-1.1 -6.81,-2.05 c -0.87,-0.24 -1.39,0.07 -1.56,0.94 c -0.43,-0.18 -0.74,-0.48 -0.93,-0.91 c 0.01,-0.63 -0.27,-1.08 -0.82,-1.35 c -0.26,-0.07 -0.53,-0.14 -0.79,-0.21 c -0.29,-0.43 -0.67,-0.75 -1.14,-0.97 c -0.27,-0.56 -0.72,-0.86 -1.34,-0.92 c -1.31,-0.37 -3.09,-2.5 -3.94,-3.6 c 0.07,-0.56 0,-1.11 -0.2,-1.63 c -2.05,-3.09 -3.64,-6.4 -4.77,-9.93 c -0.2,-0.3 -0.48,-0.45 -0.83,-0.43 c 0.24,-1.04 0.01,-1.93 -0.67,-2.69 c -0.52,-3.05 -0.39,-8.37 0.17,-11.57 c -0.33,-2.72 -0.59,-5.44 -0.79,-8.17 c 0.27,-4.1 0.37,-8.22 0.29,-12.34 c -0.15,-2.34 1.27,-3.6 0.1,-5.81 c 0.21,-2.02 -0.51,-10.06 0.32,-11.35 c 0.76,-1.75 1.07,-3.59 0.91,-5.52 c -1.39,-6.33 8.23,-18.64 14.4,-19.94 c 0.71,-0.11 1.28,-0.45 1.72,-1.01 c 2.5,-2.76 20.41,-4 24.26,-4.06 c 2.94,0.09 6.68,0.87 9.38,-0.59 Z"/></g>
<g><path fill="#f7fbde" fill-opacity="0.259" d="M 2.26,85.64 c 0.68,0.76 0.91,1.65 0.67,2.69 c -1.15,-0.22 -0.78,-1.88 -0.67,-2.69 Z"/></g>
<g><path fill="#f3a776" fill-opacity="0.976" d="M 111.93,67.1 c 0.71,0.04 1.42,0.03 2.13,-0.02 c -0.13,4.56 -0.28,9.12 -0.46,13.68 c -0.41,2.17 -0.74,4.35 -0.99,6.53 c -2.8,10.52 -9.32,17.67 -19.54,21.44 c -5.79,1.25 -11.64,1.72 -17.57,1.38 c -1.68,0.14 -3.35,0.39 -5,0.74 c -9,0.6 -18,0.59 -27,-0.02 c -1.68,-0.2 -3.34,-0.47 -5,-0.79 c -4.16,0.11 -8.31,-0.11 -12.44,-0.65 c 0.82,-0.49 1.08,-1.21 0.77,-2.16 c 13.33,0.95 26.17,2.27 39.67,1.71 c 7.96,-1.2 17.08,-0.42 24.86,-2.16 c 19.57,-5.96 20.49,-22.01 20.57,-39.68 Z"/></g>
<g><path fill="#f9f8d6" fill-opacity="0.29" d="M 1.28,66 c 0.12,-0.03 0.24,-0.06 0.36,-0.1 c 0.2,2.73 0.46,5.45 0.79,8.17 c -0.76,1.27 -1.22,1.11 -1.38,-0.47 c -0.14,-2.54 -0.06,-5.08 0.23,-7.6 Z"/></g>
<g><path fill="#f8fce1" fill-opacity="0.251" d="M 3.26,30.88 c 0.16,1.93 -0.15,3.77 -0.91,5.52 c -0.28,-1.06 -1.17,-5.73 0.91,-5.52 Z"/></g>
<g><path fill="#fef8d2" stroke="#fef8d2" stroke-width="0.5" d="M 29.25,24.25 c 6.55,0.13 44.37,-2.12 47.61,-0.49 c 6.84,5.01 3.1,17.46 2.99,24.65 c -0.33,5.75 0.22,11.41 1.66,16.97 c -1.09,0.47 -2.23,0.87 -3.44,1.22 c -2.45,0.97 -3.3,3.14 -4.9,5 c -11.71,4.89 -3.61,12.49 -1.53,19.32 c 0.47,1.37 -3.24,1.9 -4.14,1.86 c -2,-0.24 -3.83,-2.2 -5.88,-1.55 c -1.65,0.8 -3.3,1.57 -4.95,2.3 c -6.29,-2.99 -4.58,-2.15 -10.13,0.41 c -2.17,0.48 -3.36,-2.36 -6.03,-2.09 c -1.96,0.78 -8.79,3.98 -10.12,1.63 c 4.53,-9.38 -0.04,-23.79 0.25,-33.97 c -0.56,-12.26 5.62,-24.03 -1.39,-35.26 Z M 40.14,38.99 c 0.16,1.28 0.89,1.82 2.21,1.63 c 9.19,-1.33 20.83,0.11 29.62,-1.3 c 0.95,-0.98 0.77,-1.71 -0.52,-2.2 c -4.21,-0.03 -29.61,0.09 -31.31,1.87 Z M 40.23,51.63 c 5.45,0.88 21.73,-0.03 28.29,-0.23 c 3.38,-0.13 3.02,-2.83 0,-2.5 c -9.11,0.41 -18.08,0.04 -27.06,1.14 c -0.72,0.28 -1.13,0.81 -1.23,1.59 Z M 40.11,63 c 0.56,0.81 1.35,1.14 2.38,0.97 c 8.31,-0.66 16.65,-0.98 25.02,-0.97 c 1.3,-0.13 2.41,-0.63 3.33,-1.52 c -0.65,-0.57 -1.43,-0.79 -2.32,-0.67 c -6.4,0.27 -13.6,-0.29 -19.86,0.66 c -1.79,-0.24 -8.08,-0.95 -8.55,1.53 Z M 40.39,74.35 c 0.19,3.06 4.4,0.73 6.1,0.79 c 2.91,0.56 19.4,0.68 19.95,-1.65 c -0.59,-2.52 -8.58,0 -10.87,-1.01 c -5.29,1.66 -10.33,-1.05 -15.18,1.87 Z"/></g>
<g><path fill="#f0ad65" d="M 40.39,74.35 c 4.85,-2.92 9.89,-0.21 15.18,-1.87 c 2.29,1.01 10.28,-1.51 10.87,1.01 c -0.55,2.33 -17.04,2.21 -19.95,1.65 c -1.7,-0.06 -5.91,2.27 -6.1,-0.79 Z"/></g>
<g><path fill="#f0af6c" fill-opacity="0.996" d="M 40.11,63 c 0.47,-2.48 6.76,-1.77 8.55,-1.53 c 6.26,-0.95 13.46,-0.39 19.86,-0.66 c 0.89,-0.12 1.67,0.1 2.32,0.67 c -0.92,0.89 -2.03,1.39 -3.33,1.52 c -8.37,-0.01 -16.71,0.31 -25.02,0.97 c -1.03,0.17 -1.82,-0.16 -2.38,-0.97 Z"/></g>
<g><path fill="#f2b16c" fill-opacity="0.992" d="M 40.23,51.63 c 0.1,-0.78 0.51,-1.31 1.23,-1.59 c 8.98,-1.1 17.95,-0.73 27.06,-1.14 c 3.02,-0.33 3.38,2.37 0,2.5 c -6.56,0.2 -22.84,1.11 -28.29,0.23 Z"/></g>
<g><path fill="#efa862" d="M 40.14,38.99 c 1.7,-1.78 27.1,-1.9 31.31,-1.87 c 1.29,0.49 1.47,1.22 0.52,2.2 c -8.79,1.41 -20.43,-0.03 -29.62,1.3 c -1.32,0.19 -2.05,-0.35 -2.21,-1.63 Z"/></g>
<g><path fill="#fcfcf8" stroke="#fcfcf8" stroke-width="0.5" d="M 69.35,79.14 c 0.8,-3.73 2.74,-4.09 5.99,-5.25 c 0.55,-1.14 1.12,-2.26 1.72,-3.38 c 1.09,-1.42 2.52,-2.12 4.29,-2.11 c 2.9,0.84 3.59,2.43 6.24,0.03 c 2.03,-0.8 3.82,-0.45 5.38,1.05 c 1.15,1.32 2.07,2.77 2.74,4.35 c 8.34,1.43 7.51,7.66 1.92,12.16 c -1.31,4.48 -0.68,7.98 -6.1,9.89 c -8.98,1.81 -16.85,1.45 -17.95,-9.19 c -1.86,-2.22 -4.74,-4.21 -4.23,-7.55 Z M 78.14,74.95 c 1.05,4.18 5.63,3.91 5.82,-0.44 c -0.57,-4.57 -5.62,-4.08 -5.82,0.44 Z M 86.92,74 c -0.32,4.58 4.97,4.8 5.83,0.37 c -0.35,-4.58 -5.4,-4.4 -5.83,-0.37 Z M 72.07,80 c 1.23,6.23 8.62,1.86 4.51,-2.04 c -2.43,-1.36 -3.94,-0.68 -4.51,2.04 Z M 93.26,80 c 2.15,5.81 8.07,0.91 4.93,-2.68 c -2.68,-1.05 -4.32,-0.16 -4.93,2.68 Z M 77.69,88.01 c 0.11,1.33 0.74,2.3 1.87,2.91 c 4.28,0.15 13.02,2.37 14.08,-3.41 c -2.14,-10.67 -13.84,-9.94 -15.95,0.5 Z"/></g>
<g><path fill="#fb9c6e" fill-opacity="0.996" stroke="#fb9c6e" stroke-width="0.5" stroke-opacity="0.996" d="M 86.92,74 c 0.43,-4.03 5.48,-4.21 5.83,0.37 c -0.86,4.43 -6.15,4.21 -5.83,-0.37 Z M 72.07,80 c 0.57,-2.72 2.08,-3.4 4.51,-2.04 c 4.11,3.9 -3.28,8.27 -4.51,2.04 Z"/></g>
<g><path fill="#fb996c" fill-opacity="0.992" stroke="#fb996c" stroke-width="0.5" stroke-opacity="0.992" d="M 78.14,74.95 c 0.2,-4.52 5.25,-5.01 5.82,-0.44 c -0.19,4.35 -4.77,4.62 -5.82,0.44 Z M 93.26,80 c 0.61,-2.84 2.25,-3.73 4.93,-2.68 c 3.14,3.59 -2.78,8.49 -4.93,2.68 Z"/></g>
<g><path fill="#fcab7d" fill-opacity="0.996" stroke="#fcab7d" stroke-width="0.5" stroke-opacity="0.996" d="M 77.69,88.01 c 2.11,-10.44 13.81,-11.17 15.95,-0.5 c -1.06,5.78 -9.8,3.56 -14.08,3.41 c -1.13,-0.61 -1.76,-1.58 -1.87,-2.91 Z"/></g>
</svg>
